# xmcd CD database file
#
# Track frame offsets:
#	150
#	21601
#	45966
#	52128
#
# Disc length: 978 seconds
#
# Revision: 0
# Processed by: cddbd v1.5.1PL2 Copyright (c) Steve Scherf et al.
# Submitted via: CDex 1.51
#
DISCID=3103d004
DTITLE=あつ - 笑学校
DYEAR=2006
DGENRE=Pop
TTITLE0=あつ - 笑学校
TTITLE1=あつ - 四葉の言葉
TTITLE2=あつ - “あつからのメッセージ”
TTITLE3=あつ - 笑学校(オリジナルカラオケ)
EXTD=YEAR: 2006
EXTT0=
EXTT1=
EXTT2=
EXTT3=
PLAYORDER=
